<?xml version="1.0" standalone="no"?>
<!DOCTYPE svg PUBLIC "-//W3C//DTD SVG 20010904//EN"
 "http://www.w3.org/TR/2001/REC-SVG-20010904/DTD/svg10.dtd">
<svg version="1.0" xmlns="http://www.w3.org/2000/svg"
 width="512.000000pt" height="512.000000pt" viewBox="0 0 512.000000 512.000000"
 preserveAspectRatio="xMidYMid meet">

<g transform="translate(0.000000,512.000000) scale(0.100000,-0.100000)"
fill="#000000" stroke="none">
<path d="M2763 5049 c-79 -37 -143 -73 -143 -78 0 -5 48 -35 108 -66 59 -31
111 -60 115 -64 7 -7 -29 -145 -99 -376 -22 -76 -26 -81 -68 -103 -111 -59
-206 -178 -206 -260 0 -76 56 -142 155 -183 47 -19 54 -26 85 -92 118 -246
415 -346 659 -222 147 74 261 254 261 412 0 51 3 56 49 103 85 85 104 190 48
263 -42 56 -202 126 -288 127 -19 1 -68 59 -253 305 -200 266 -232 305 -255
304 -14 0 -90 -32 -168 -70z"/>
<path d="M2686 3489 c-84 -12 -173 -57 -229 -115 -41 -43 -670 -960 -769
-1122 -110 -179 -85 -396 64 -542 41 -40 46 -49 31 -54 -64 -19 -318 -74 -325
-70 -4 3 -8 11 -8 19 0 7 -14 25 -31 39 -45 38 -92 35 -134 -7 l-34 -34 -36
37 c-43 44 -113 84 -182 105 -92 28 -170 20 -510 -55 -338 -74 -353 -80 -353
-136 0 -50 162 -759 177 -776 10 -11 31 -18 53 -18 21 0 177 31 347 69 344 76
393 94 478 179 27 27 62 79 84 123 34 71 38 76 56 63 30 -22 90 -17 120 9 20
16 28 35 32 68 l5 46 157 32 c86 18 167 35 180 38 18 5 -32 -61 -193 -253
-264 -315 -288 -357 -294 -503 -3 -79 0 -107 17 -159 56 -165 174 -268 351
-306 41 -9 260 -50 485 -92 464 -86 516 -89 615 -43 107 50 179 148 200 270
27 163 141 1171 143 1262 l2 102 800 167 c440 92 819 172 843 179 108 30 158
176 92 269 -28 39 -89 70 -138 70 -22 0 -221 -43 -443 -95 -222 -52 -409 -95
-415 -95 -6 0 -25 22 -41 49 -40 64 -74 82 -333 182 -118 45 -219 85 -223 89
-5 5 -40 167 -78 361 -76 388 -93 441 -170 524 -88 95 -245 145 -393 124z
m134 -1176 c35 -180 81 -234 253 -298 42 -16 77 -32 77 -35 0 -6 -146 -40
-173 -40 -19 0 -317 190 -317 203 0 6 142 226 147 227 1 0 7 -26 13 -57z"/>
</g>
</svg>
