<?xml version="1.0" encoding="iso-8859-1"?>
<!-- Generator: Adobe Illustrator 19.0.0, SVG Export Plug-In . SVG Version: 6.00 Build 0)  -->
<svg version="1.1" id="Layer_1" xmlns="http://www.w3.org/2000/svg" xmlns:xlink="http://www.w3.org/1999/xlink" x="0px" y="0px"
	 viewBox="0 0 512.001 512.001" style="enable-background:new 0 0 512.001 512.001;" xml:space="preserve">
<g>
	<path style="fill:#FF8800;" d="M211.692,512.001h-54.01c-5.618,0-10.171-4.554-10.171-10.171c0-5.617,4.553-10.171,10.171-10.171
		h43.839v-43.631c0-5.617,4.553-10.171,10.171-10.171c5.619,0,10.171,4.554,10.171,10.171v53.802
		C221.863,507.447,217.309,512.001,211.692,512.001z"/>
	<path style="fill:#FF8800;" d="M305.569,512.001h-54.011c-5.619,0-10.171-4.554-10.171-10.171c0-5.617,4.553-10.171,10.171-10.171
		h43.84v-43.631c0-5.617,4.553-10.171,10.171-10.171c5.619,0,10.171,4.554,10.171,10.171v53.802
		C315.741,507.447,311.188,512.001,305.569,512.001z"/>
</g>
<path style="fill:#4D3926;" d="M173.17,228.598c-14.996-24.853-41.905-40.044-70.932-40.044l0,0
	c-45.754,0-82.843,37.091-82.843,82.843l0,0c0,97.552,79.081,176.632,176.632,176.632h109.543L173.17,228.598z"/>
<path style="fill:#BC9A7B;" d="M106.668,226.977h200.81l78.408,221.052H205.635c-54.658,0-98.966-44.309-98.966-98.967V226.977
	H106.668z"/>
<path style="opacity:0.3;fill:#20272E;enable-background:new    ;" d="M335.497,200.836c-12.847-7.901-27.816-12.284-43.398-12.284
	l0,0c-29.404,0-55.21,15.333-69.912,38.424h-50.03c-15.174-23.887-41.529-38.424-69.917-38.424l0,0
	c-23.469,0-44.643,9.775-59.716,25.458c26.281,52.73,80.757,89.043,143.565,89.043C254.001,303.053,312.181,260.599,335.497,200.836
	z"/>
<circle style="fill:#664B33;" cx="186.089" cy="142.748" r="139.968"/>
<g>
	<path style="opacity:0.3;fill:#20272E;enable-background:new    ;" d="M186.086,2.781v279.928
		c77.3,0,139.965-62.665,139.965-139.965C326.051,65.445,263.387,2.781,186.086,2.781z"/>
	<circle style="fill:#20272E;" cx="111.962" cy="142.748" r="17.793"/>
	<circle style="fill:#20272E;" cx="260.216" cy="142.748" r="17.793"/>
</g>
<path style="fill:#FF8800;" d="M222.595,98.21c0,0-1.486,69.167-36.509,75.079c-35.022-5.911-36.509-75.079-36.509-75.079H222.595z"
	/>
<g>
	<path style="fill:#4D3926;" d="M320.686,0.068c68.161,2.12-43.892,117.957-134.6,117.957S-16.675,2.189,51.486,0.068
		s134.6,45.779,134.6,45.779S252.525-2.051,320.686,0.068z"/>
	<path style="fill:#4D3926;" d="M360.204,228.598c-14.996-24.853-41.905-40.044-70.932-40.044l0,0
		c-45.754,0-82.843,37.091-82.843,82.843l0,0c0,97.552,79.081,176.632,176.632,176.632h109.543L360.204,228.598z"/>
</g>
<g>
</g>
<g>
</g>
<g>
</g>
<g>
</g>
<g>
</g>
<g>
</g>
<g>
</g>
<g>
</g>
<g>
</g>
<g>
</g>
<g>
</g>
<g>
</g>
<g>
</g>
<g>
</g>
<g>
</g>
</svg>
